<svg width="22" height="22" viewBox="0 0 22 22" fill="none" xmlns="http://www.w3.org/2000/svg">
<path d="M3.89567 4.125C2.25853 4.125 0.916504 5.46703 0.916504 7.10417V14.8958C0.916504 16.533 2.25853 17.875 3.89567 17.875H18.104C19.7411 17.875 21.0832 16.533 21.0832 14.8958V7.10417C21.0832 5.46703 19.7411 4.125 18.104 4.125H3.89567ZM3.89567 5.5H18.104C18.9978 5.5 19.7082 6.21039 19.7082 7.10417V7.79167H2.2915V7.10417C2.2915 6.21039 3.00189 5.5 3.89567 5.5ZM2.2915 9.625H19.7082V14.8958C19.7082 15.7896 18.9978 16.5 18.104 16.5H3.89567C3.00189 16.5 2.2915 15.7896 2.2915 14.8958V9.625ZM14.4373 13.2917C14.3462 13.2904 14.2558 13.3072 14.1712 13.3412C14.0867 13.3752 14.0098 13.4256 13.9449 13.4896C13.88 13.5535 13.8285 13.6297 13.7933 13.7138C13.7582 13.7979 13.74 13.8881 13.74 13.9792C13.74 14.0703 13.7582 14.1605 13.7933 14.2445C13.8285 14.3286 13.88 14.4048 13.9449 14.4688C14.0098 14.5327 14.0867 14.5832 14.1712 14.6172C14.2558 14.6511 14.3462 14.668 14.4373 14.6667H17.1873C17.2784 14.668 17.3689 14.6511 17.4534 14.6172C17.538 14.5832 17.6149 14.5327 17.6798 14.4688C17.7447 14.4048 17.7962 14.3286 17.8314 14.2445C17.8665 14.1605 17.8846 14.0703 17.8846 13.9792C17.8846 13.8881 17.8665 13.7979 17.8314 13.7138C17.7962 13.6297 17.7447 13.5535 17.6798 13.4896C17.6149 13.4256 17.538 13.3752 17.4534 13.3412C17.3689 13.3072 17.2784 13.2904 17.1873 13.2917H14.4373Z" fill="black"/>
</svg>
