<svg width="14" height="14" viewBox="0 0 14 14" fill="none" xmlns="http://www.w3.org/2000/svg">
<path d="M11.2591 0.903912C11.0934 0.735805 10.825 0.735805 10.6592 0.903912L6.99942 4.61602L3.33991 0.903912C3.17417 0.735805 2.90577 0.735805 2.74003 0.903912L0.901647 2.76857C0.735909 2.93668 0.735909 3.20892 0.901647 3.37702L4.47363 7.00005L0.901647 10.6231C0.735909 10.7912 0.735909 11.0634 0.901647 11.2315L2.74003 13.0962C2.90577 13.2643 3.17417 13.2643 3.33991 13.0962L6.99942 9.38409L10.6592 13.0962C10.825 13.2643 11.0934 13.2643 11.2591 13.0962L13.0975 11.2313C13.2632 11.0631 13.2632 10.7909 13.0975 10.6228L9.52579 7.00005L13.0975 3.37731C13.2632 3.2092 13.2632 2.93696 13.0975 2.76886L11.2591 0.903912Z" fill="#17191F"/>
</svg>
