<svg width="22" height="22" viewBox="0 0 22 22" fill="none" xmlns="http://www.w3.org/2000/svg">
<path d="M3.89567 4.125C2.25853 4.125 0.916504 5.46703 0.916504 7.10417V14.8958C0.916504 16.533 2.25853 17.875 3.89567 17.875H18.104C19.7411 17.875 21.0832 16.533 21.0832 14.8958V7.10417C21.0832 5.46703 19.7411 4.125 18.104 4.125H3.89567ZM3.89567 5.5H18.104C18.9978 5.5 19.7082 6.21039 19.7082 7.10417V7.79167H2.2915V7.10417C2.2915 6.21039 3.00189 5.5 3.89567 5.5ZM2.2915 9.625H19.7082V14.8958C19.7082 15.7896 18.9978 16.5 18.104 16.5H3.89567C3.00189 16.5 2.2915 15.7896 2.2915 14.8958V9.625Z" fill="#17191F"/>
<path d="M7.55684 11.1022C8.08117 11.1022 8.52484 11.2972 8.88784 11.687L8.33325 12.2013C8.11814 12.0063 7.85934 11.9089 7.55684 11.9089C7.28795 11.9089 7.06443 12.0013 6.8863 12.1862C6.70816 12.3677 6.61909 12.6063 6.61909 12.9021C6.61909 13.1979 6.70816 13.4365 6.8863 13.618C7.06443 13.7995 7.28795 13.8903 7.55684 13.8903C7.8627 13.8903 8.1215 13.7945 8.33325 13.6029L8.88784 14.1171C8.52484 14.507 8.08117 14.702 7.55684 14.702C7.05939 14.702 6.63589 14.5272 6.28634 14.1776C5.93678 13.8247 5.762 13.3995 5.762 12.9021C5.762 12.4046 5.93678 11.9811 6.28634 11.6316C6.63589 11.2787 7.05939 11.1022 7.55684 11.1022Z" fill="#17191F"/>
<path d="M11.3061 14.6667H10.7969L9.34994 11.1375H10.3028L11.0439 13.0987L11.78 11.1375H12.7329L11.3061 14.6667Z" fill="#17191F"/>
<path d="M14.755 11.1022C15.2793 11.1022 15.723 11.2972 16.086 11.687L15.5314 12.2013C15.3163 12.0063 15.0575 11.9089 14.755 11.9089C14.4861 11.9089 14.2626 12.0013 14.0845 12.1862C13.9063 12.3677 13.8172 12.6063 13.8172 12.9021C13.8172 13.1979 13.9063 13.4365 14.0845 13.618C14.2626 13.7995 14.4861 13.8903 14.755 13.8903C15.0609 13.8903 15.3197 13.7945 15.5314 13.6029L16.086 14.1171C15.723 14.507 15.2793 14.702 14.755 14.702C14.2576 14.702 13.8341 14.5272 13.4845 14.1776C13.1349 13.8247 12.9602 13.3995 12.9602 12.9021C12.9602 12.4046 13.1349 11.9811 13.4845 11.6316C13.8341 11.2787 14.2576 11.1022 14.755 11.1022Z" fill="#17191F"/>
</svg>
