<svg width="22" height="22" viewBox="0 0 22 22" fill="none" xmlns="http://www.w3.org/2000/svg">
<path d="M5.729 2.75C4.09187 2.75 2.74984 4.09203 2.74984 5.72917V7.79167V9.69393C2.97213 9.64855 3.20175 9.625 3.43734 9.625H4.12484V7.79167H17.8748V8.70833V12.375V13.0625C17.8748 13.9563 17.1644 14.6667 16.2707 14.6667C15.3769 14.6667 14.6665 13.9563 14.6665 13.0625C14.6665 11.6784 13.5297 10.5417 12.1457 10.5417H3.43734C2.05327 10.5417 0.916504 11.6784 0.916504 13.0625C0.916504 14.6996 2.25853 16.0417 3.89567 16.0417H9.39567H16.2707C17.9078 16.0417 19.2498 14.6996 19.2498 13.0625V12.375V8.70833V5.72917C19.2498 4.09203 17.9078 2.75 16.2707 2.75H5.729ZM5.729 4.125H16.2707C17.1644 4.125 17.8748 4.83539 17.8748 5.72917V6.41667H4.12484V5.72917C4.12484 4.83539 4.83523 4.125 5.729 4.125ZM3.43734 11.9167H12.1457C12.7865 11.9167 13.2915 12.4216 13.2915 13.0625C13.2915 13.6652 13.518 14.1962 13.8295 14.6667H9.39567H3.89567C3.00189 14.6667 2.2915 13.9563 2.2915 13.0625C2.2915 12.4216 2.79648 11.9167 3.43734 11.9167ZM19.2498 15.5699C18.8676 16.0237 18.3837 16.3887 17.8337 16.6307C17.67 17.3425 17.0315 17.875 16.2707 17.875H5.729C5.09055 17.875 4.53775 17.4996 4.2797 16.9583H3.89567C3.51434 16.9583 3.14562 16.903 2.79728 16.8008C3.04799 18.1914 4.26692 19.25 5.729 19.25H16.2707C17.9133 19.25 19.2498 17.9135 19.2498 16.2708V15.5699Z" fill="black"/>
</svg>
