<svg width="22" height="22" viewBox="0 0 22 22" fill="none" xmlns="http://www.w3.org/2000/svg">
<path d="M4.81266 3.66675C3.17552 3.66675 1.8335 5.00878 1.8335 6.64591V15.3542C1.8335 16.9914 3.17552 18.3334 4.81266 18.3334H17.1877C18.8248 18.3334 20.1668 16.9914 20.1668 15.3542V6.64591C20.1668 5.00878 18.8248 3.66675 17.1877 3.66675H4.81266ZM4.81266 5.04175H17.1877C18.0814 5.04175 18.7918 5.75214 18.7918 6.64591V7.15259L11.0002 11.3644L3.2085 7.15259V6.64591C3.2085 5.75214 3.91888 5.04175 4.81266 5.04175ZM3.2085 8.71558L10.6734 12.7511C10.7738 12.8053 10.8861 12.8337 11.0002 12.8337C11.1142 12.8337 11.2265 12.8053 11.3269 12.7511L18.7918 8.71558V15.3542C18.7918 16.248 18.0814 16.9584 17.1877 16.9584H4.81266C3.91888 16.9584 3.2085 16.248 3.2085 15.3542V8.71558Z" fill="#17191F"/>
</svg>
