<svg width="22" height="22" viewBox="0 0 22 22" fill="none" xmlns="http://www.w3.org/2000/svg">
<path d="M8.72719 1.83956C8.42549 1.81761 8.11635 1.84844 7.81321 1.93803L6.72825 2.2594C5.57213 2.60132 4.6688 3.51862 4.36318 4.67639C3.68458 7.25119 4.46087 10.2988 6.48118 13.7294C8.49865 17.1552 10.7975 19.3324 13.3938 20.0431C14.563 20.3631 15.8239 20.0574 16.7095 19.2347L17.5349 18.4694C18.4584 17.6119 18.5961 16.1837 17.85 15.1688L16.6576 13.5494C16.0184 12.6813 14.8918 12.3117 13.8557 12.6229L11.9901 13.1815C11.9118 13.2044 11.7244 13.0977 11.5613 12.9568L11.5604 12.9559C11.27 12.7034 10.8675 12.1929 10.437 11.4628V11.4619C9.97533 10.6778 9.77842 10.165 9.69936 9.86218C9.62027 9.55922 9.63946 9.52237 9.65102 9.41996C9.65703 9.36886 9.68131 9.32152 9.72264 9.28389L9.72353 9.283L11.1146 8.01094C11.9116 7.28235 12.1522 6.11802 11.7028 5.1383L10.864 3.30855V3.30765C10.4691 2.44686 9.63206 1.90538 8.72719 1.83956ZM8.62783 3.21098C9.04867 3.24242 9.4362 3.49485 9.61342 3.88147L10.4531 5.71122C10.6563 6.15416 10.5544 6.66104 10.1872 6.9967L8.79612 8.26786C8.51094 8.52788 8.32857 8.8824 8.28497 9.26509V9.26599C8.27362 9.36662 8.24678 9.74087 8.36912 10.2095C8.49147 10.6782 8.74406 11.298 9.25177 12.1601H9.25266C9.72639 12.9636 10.1741 13.574 10.659 13.9952H10.6599C10.8174 14.1316 11.4773 14.7641 12.3751 14.5019L12.3777 14.501L14.2514 13.9397C14.7379 13.7936 15.2581 13.9681 15.5503 14.3649L16.7427 15.9843C17.0803 16.4443 17.0213 17.0697 16.5994 17.4614L15.7741 18.2277C15.2462 18.7182 14.4624 18.9097 13.7563 18.7164C11.6575 18.1419 9.58052 16.2823 7.6664 13.032C5.74963 9.7773 5.15012 7.08533 5.69252 5.0273C5.87182 4.34807 6.42117 3.78425 7.11855 3.578L8.20262 3.25663C8.34383 3.2149 8.48755 3.20049 8.62783 3.21098Z" fill="#17191F"/>
</svg>
