<svg width="26" height="26" viewBox="0 0 26 26" fill="none" xmlns="http://www.w3.org/2000/svg">
<path d="M13.0002 2.16675C10.0182 2.16675 7.5835 4.6015 7.5835 7.58342C7.5835 10.5653 10.0182 13.0001 13.0002 13.0001C15.9821 13.0001 18.4168 10.5653 18.4168 7.58342C18.4168 4.6015 15.9821 2.16675 13.0002 2.16675ZM13.0002 3.79175C15.1039 3.79175 16.7918 5.47971 16.7918 7.58342C16.7918 9.68712 15.1039 11.3751 13.0002 11.3751C10.8965 11.3751 9.2085 9.68712 9.2085 7.58342C9.2085 5.47971 10.8965 3.79175 13.0002 3.79175ZM6.48853 15.1667C5.30779 15.1667 4.3335 16.141 4.3335 17.3218V18.1459C4.3335 20.0982 5.5681 21.6084 7.20793 22.5131C8.84775 23.4178 10.9246 23.8334 13.0002 23.8334C15.0758 23.8334 17.1526 23.4178 18.7924 22.5131C20.1906 21.7417 21.2429 20.509 21.5378 18.9584H21.6679V17.3218C21.6679 16.141 20.6925 15.1667 19.5118 15.1667H6.48853ZM6.48853 16.7917H19.5118C19.8142 16.7917 20.0429 17.0194 20.0429 17.3218V17.3334H20.0418V18.1459C20.0418 19.4437 19.3129 20.371 18.0074 21.0912C16.7019 21.8115 14.8516 22.2084 13.0002 22.2084C11.1487 22.2084 9.29841 21.8115 7.99292 21.0912C6.68743 20.371 5.9585 19.4437 5.9585 18.1459V17.3218C5.9585 17.0194 6.18617 16.7917 6.48853 16.7917Z" fill="#17191F"/>
</svg>
