<svg width="100" height="100" viewBox="0 0 100 100" fill="none" xmlns="http://www.w3.org/2000/svg">
<path d="M52.3283 7.28433L57.6205 13.1906C58.4377 14.1015 59.7111 14.4531 60.8799 14.0875L68.6361 11.664C70.3799 11.1187 72.2174 12.1796 72.6174 13.9625L74.3549 21.714C74.6189 22.8937 75.5408 23.8156 76.7205 24.0796L84.4861 25.8203C86.2643 26.2187 87.3252 28.0484 86.7893 29.789L84.3939 37.5671C84.0361 38.7296 84.3846 39.9937 85.2877 40.8078L91.1736 46.1124C92.5502 47.3531 92.5502 49.514 91.1736 50.7546L85.2877 56.0593C84.3846 56.8734 84.0346 58.1375 84.3939 59.2999L86.7893 67.0781C87.3252 68.8203 86.2643 70.6484 84.4861 71.0468L76.7205 72.7875C75.5408 73.0515 74.6189 73.9734 74.3549 75.1531L72.6174 82.9046C72.2174 84.6874 70.3799 85.7484 68.6361 85.2031L60.8799 82.7796C59.7111 82.414 58.4377 82.7656 57.6205 83.6765L52.3283 89.5828C51.0861 90.9687 48.9158 90.9687 47.6736 89.5828L42.3814 83.6765C41.5643 82.7656 40.2908 82.414 39.1221 82.7796L31.3658 85.2031C29.6221 85.7484 27.7846 84.6874 27.3846 82.9046L25.6471 75.1531C25.383 73.9734 24.4611 73.0515 23.2814 72.7875L15.5158 71.0468C13.7377 70.6484 12.6768 68.8187 13.2127 67.0781L15.608 59.2999C15.9658 58.1375 15.6174 56.8734 14.7143 56.0593L8.82832 50.7546C7.45176 49.514 7.45176 47.3531 8.82832 46.1124L14.7143 40.8078C15.6174 39.9937 15.9674 38.7296 15.608 37.5671L13.2127 29.789C12.6768 28.0468 13.7377 26.2187 15.5158 25.8203L23.2814 24.0796C24.4611 23.8156 25.383 22.8937 25.6471 21.714L27.3846 13.9625C27.7846 12.1796 29.6221 11.1187 31.3658 11.664L39.1221 14.0875C40.2908 14.4531 41.5643 14.1015 42.3814 13.1906L47.6736 7.28433C48.9143 5.89839 51.0861 5.89839 52.3283 7.28433Z" fill="url(#paint0_linear_20_2372)"/>
<path d="M66.7111 33.9579L42.9689 57.7282L34.7893 49.5719C33.2627 48.05 30.7924 48.0516 29.2689 49.5766C27.7424 51.1032 27.7439 53.5797 29.2721 55.1047L40.2127 66.0188C41.7393 67.5422 44.2111 67.5391 45.7346 66.0141L72.2377 39.4797C73.7611 37.9532 73.7611 35.4813 72.2361 33.9563C70.7096 32.4313 68.2361 32.4313 66.7111 33.9579Z" fill="white"/>
<defs>
<linearGradient id="paint0_linear_20_2372" x1="50.0002" y1="6.24526" x2="50.0002" y2="90.6296" gradientUnits="userSpaceOnUse">
<stop stop-color="#42D778"/>
<stop offset="0.996" stop-color="#34B171"/>
<stop offset="1" stop-color="#34B171"/>
</linearGradient>
</defs>
</svg>
