<svg width="100" height="100" viewBox="0 0 100 100" fill="none" xmlns="http://www.w3.org/2000/svg">
<path d="M52.5324 7.03945L57.8246 12.9457C58.6418 13.8566 59.9152 14.2082 61.084 13.8426L68.8402 11.4191C70.584 10.8738 72.4215 11.9348 72.8215 13.7176L74.559 21.4691C74.8231 22.6488 75.7449 23.5707 76.9246 23.8348L84.6902 25.5754C86.4684 25.9738 87.5293 27.8035 86.9934 29.5441L84.598 37.3223C84.2402 38.4848 84.5887 39.7488 85.4918 40.5629L91.3777 45.8676C92.7543 47.1082 92.7543 49.2691 91.3777 50.5098L85.4918 55.8144C84.5887 56.6285 84.2387 57.8926 84.598 59.0551L86.9934 66.8332C87.5293 68.5754 86.4684 70.4035 84.6902 70.802L76.9246 72.5426C75.7449 72.8066 74.8231 73.7285 74.559 74.9082L72.8215 82.6598C72.4215 84.4426 70.584 85.5035 68.8402 84.9582L61.084 82.5348C59.9152 82.1691 58.6418 82.5207 57.8246 83.4316L52.5324 89.3379C51.2902 90.7238 49.1199 90.7238 47.8777 89.3379L42.5855 83.4316C41.7684 82.5207 40.4949 82.1691 39.3262 82.5348L31.5699 84.9582C29.8262 85.5035 27.9887 84.4426 27.5887 82.6598L25.8512 74.9082C25.5871 73.7285 24.6652 72.8066 23.4855 72.5426L15.7199 70.802C13.9418 70.4035 12.8809 68.5738 13.4168 66.8332L15.8121 59.0551C16.1699 57.8926 15.8215 56.6285 14.9184 55.8144L9.03242 50.5098C7.65586 49.2691 7.65586 47.1082 9.03242 45.8676L14.9184 40.5629C15.8215 39.7488 16.1715 38.4848 15.8121 37.3223L13.4168 29.5441C12.8809 27.802 13.9418 25.9738 15.7199 25.5754L23.4855 23.8348C24.6652 23.5707 25.5871 22.6488 25.8512 21.4691L27.5887 13.7176C27.9887 11.9348 29.8262 10.8738 31.5699 11.4191L39.3262 13.8426C40.4949 14.2082 41.7684 13.8566 42.5855 12.9457L47.8777 7.03945C49.1184 5.65352 51.2902 5.65352 52.5324 7.03945Z" fill="#FD4343"/>
<path d="M59.0571 36.2533C58.7241 35.9156 58.1849 35.9156 57.852 36.2533L50.4997 43.7106L43.148 36.2533C42.8151 35.9156 42.2759 35.9156 41.9429 36.2533L38.2497 39.9993C37.9168 40.337 37.9168 40.8839 38.2497 41.2216L45.4256 48.5L38.2497 55.7784C37.9168 56.1161 37.9168 56.663 38.2497 57.0007L41.9429 60.7467C42.2759 61.0844 42.8151 61.0844 43.148 60.7467L50.4997 53.2894L57.852 60.7467C58.1849 61.0844 58.7241 61.0844 59.0571 60.7467L62.7503 57.0002C63.0832 56.6625 63.0832 56.1155 62.7503 55.7778L55.575 48.5L62.7503 41.2222C63.0832 40.8845 63.0832 40.3375 62.7503 39.9998L59.0571 36.2533Z" fill="white"/>
</svg>
