<svg width="282" height="44" viewBox="0 0 282 44" fill="none" xmlns="http://www.w3.org/2000/svg">
<path d="M116.786 18.6582H111.609C111.514 18.0143 111.321 17.4423 111.029 16.9423C110.738 16.4347 110.363 16.0029 109.906 15.6469C109.449 15.2908 108.921 15.0181 108.322 14.8287C107.731 14.6393 107.089 14.5446 106.395 14.5446C105.142 14.5446 104.051 14.8438 103.121 15.4423C102.191 16.0332 101.47 16.8969 100.958 18.0332C100.446 19.162 100.189 20.5332 100.189 22.1469C100.189 23.806 100.446 25.1999 100.958 26.3287C101.478 27.4575 102.203 28.3097 103.133 28.8855C104.063 29.4613 105.139 29.7491 106.36 29.7491C107.046 29.7491 107.68 29.662 108.263 29.4878C108.854 29.3135 109.378 29.0597 109.835 28.7264C110.292 28.3855 110.671 27.9726 110.97 27.4878C111.278 27.0029 111.49 26.4499 111.609 25.8287H116.786C116.652 26.8969 116.317 27.9499 115.781 28.9423C115.253 29.9272 114.54 30.8097 113.642 31.59C112.751 32.3628 111.687 32.9764 110.45 33.431C109.221 33.8779 107.83 34.1014 106.277 34.1014C104.118 34.1014 102.187 33.6317 100.485 32.6923C98.7906 31.7529 97.4509 30.3931 96.4658 28.6128C95.4886 26.8325 95 24.6772 95 22.1469C95 19.609 95.4965 17.4499 96.4895 15.6696C97.4824 13.8893 98.83 12.5332 100.532 11.6014C102.234 10.662 104.149 10.1923 106.277 10.1923C107.68 10.1923 108.98 10.3817 110.178 10.7605C111.384 11.1393 112.452 11.6923 113.382 12.4196C114.312 13.1393 115.068 14.0219 115.651 15.0673C116.242 16.1128 116.621 17.3097 116.786 18.6582Z" fill="#17191F"/>
<path d="M124.174 33.7832H118.689L127.047 10.5105H133.643L141.989 33.7832H136.504L130.439 15.8287H130.25L124.174 33.7832ZM123.832 24.6355H136.787V28.4764H123.832V24.6355Z" fill="#17191F"/>
<path d="M157.483 17.2037C157.389 16.287 156.983 15.5749 156.266 15.0673C155.548 14.5597 154.575 14.306 153.346 14.306C152.51 14.306 151.805 14.4196 151.23 14.6469C150.654 14.8666 150.213 15.1734 149.906 15.5673C149.606 15.9613 149.457 16.4082 149.457 16.9082C149.441 17.3249 149.531 17.6885 149.728 17.9991C149.933 18.3097 150.213 18.5787 150.568 18.806C150.922 19.0257 151.332 19.2188 151.797 19.3855C152.262 19.5446 152.759 19.681 153.287 19.7946L155.462 20.2946C156.518 20.5219 157.487 20.8249 158.37 21.2037C159.252 21.5825 160.017 22.0484 160.663 22.6014C161.309 23.1544 161.81 23.806 162.164 24.556C162.527 25.306 162.712 26.1658 162.72 27.1355C162.712 28.5597 162.334 29.7946 161.585 30.84C160.844 31.8779 159.772 32.6847 158.37 33.2605C156.975 33.8287 155.292 34.1128 153.322 34.1128C151.368 34.1128 149.665 33.8249 148.215 33.2491C146.773 32.6734 145.646 31.8211 144.835 30.6923C144.031 29.556 143.609 28.1507 143.57 26.4764H148.523C148.578 27.2567 148.81 27.9082 149.22 28.431C149.638 28.9461 150.193 29.3363 150.887 29.6014C151.588 29.859 152.38 29.9878 153.263 29.9878C154.13 29.9878 154.882 29.8666 155.521 29.6241C156.167 29.3817 156.667 29.0446 157.022 28.6128C157.377 28.181 157.554 27.6847 157.554 27.1241C157.554 26.6014 157.392 26.162 157.069 25.806C156.754 25.4499 156.289 25.1469 155.674 24.8969C155.068 24.6469 154.323 24.4196 153.44 24.215L150.804 23.5787C148.763 23.1014 147.151 22.3552 145.969 21.34C144.787 20.3249 144.2 18.9575 144.208 17.2378C144.2 15.8287 144.59 14.5976 145.378 13.5446C146.174 12.4916 147.266 11.6696 148.653 11.0787C150.04 10.4878 151.616 10.1923 153.381 10.1923C155.178 10.1923 156.746 10.4878 158.086 11.0787C159.434 11.6696 160.482 12.4916 161.23 13.5446C161.979 14.5976 162.365 15.8173 162.389 17.2037H157.483Z" fill="#17191F"/>
<path d="M166.163 33.7832V10.5105H171.281V20.1128H181.672V10.5105H186.779V33.7832H181.672V24.1696H171.281V33.7832H166.163Z" fill="#17191F"/>
<path d="M205.255 16.3287C205.121 15.0332 204.526 14.0029 203.47 13.2378C202.414 12.4726 201.086 12.09 199.486 12.09C198.359 12.09 197.366 12.2757 196.507 12.6469C195.656 13.0181 194.986 13.5332 194.498 14.1923C194.017 14.8438 193.777 15.5863 193.777 16.4196C193.777 17.0332 193.915 17.5711 194.19 18.0332C194.466 18.4953 194.837 18.8931 195.302 19.2264C195.774 19.5522 196.294 19.8325 196.862 20.0673C197.437 20.3022 198.016 20.4991 198.6 20.6582L201.153 21.3628C201.925 21.5673 202.698 21.8287 203.47 22.1469C204.242 22.465 204.948 22.8666 205.586 23.3514C206.232 23.8287 206.748 24.4158 207.134 25.1128C207.528 25.8022 207.725 26.6317 207.725 27.6014C207.725 28.8438 207.391 29.9613 206.721 30.9537C206.051 31.9461 205.089 32.734 203.836 33.3173C202.583 33.8931 201.082 34.181 199.333 34.181C197.685 34.181 196.255 33.9196 195.041 33.3969C193.828 32.8666 192.874 32.1355 192.181 31.2037C191.487 30.2719 191.097 29.1923 191.01 27.965H193.28C193.359 28.8817 193.674 29.6582 194.226 30.2946C194.777 30.931 195.495 31.4158 196.377 31.7491C197.26 32.0749 198.245 32.2378 199.333 32.2378C200.538 32.2378 201.61 32.0446 202.548 31.6582C203.494 31.2643 204.234 30.7188 204.77 30.0219C205.314 29.3173 205.586 28.4991 205.586 27.5673C205.586 26.7794 205.373 26.1203 204.948 25.59C204.522 25.0522 203.927 24.6014 203.163 24.2378C202.406 23.8741 201.527 23.5522 200.526 23.2719L197.63 22.4537C195.731 21.9082 194.257 21.1544 193.209 20.1923C192.161 19.2302 191.637 18.0029 191.637 16.5105C191.637 15.2605 191.984 14.162 192.677 13.215C193.379 12.2605 194.324 11.5181 195.514 10.9878C196.712 10.4499 198.056 10.181 199.545 10.181C201.051 10.181 202.382 10.4461 203.541 10.9764C204.699 11.5067 205.617 12.2378 206.295 13.1696C206.981 14.0938 207.347 15.1469 207.394 16.3287H205.255Z" fill="#17191F"/>
<path d="M217.253 33.7832L210.622 10.5105H212.868L218.353 30.5219H218.542L224.027 10.5105H226.58L232.065 30.5219H232.254L237.739 10.5105H239.997L233.365 33.7832H231.001L225.386 14.0446H225.232L219.617 33.7832H217.253Z" fill="#17191F"/>
<path d="M242.142 33.7832H239.825L248.632 10.5105H250.996L259.803 33.7832H257.486L249.897 13.2719H249.732L242.142 33.7832ZM243.809 24.8628H255.819V26.7719H243.809V24.8628Z" fill="#17191F"/>
<path d="M279.565 17.7832C279.344 17.0105 279.021 16.287 278.596 15.6128C278.17 14.931 277.642 14.3363 277.012 13.8287C276.389 13.3135 275.668 12.912 274.848 12.6241C274.037 12.3363 273.13 12.1923 272.129 12.1923C270.553 12.1923 269.143 12.5863 267.898 13.3741C266.652 14.162 265.667 15.2984 264.942 16.7832C264.225 18.2681 263.867 20.056 263.867 22.1469C263.867 24.2302 264.229 26.0143 264.954 27.4991C265.679 28.984 266.672 30.1241 267.933 30.9196C269.202 31.7075 270.652 32.1014 272.283 32.1014C273.773 32.1014 275.089 31.7832 276.231 31.1469C277.374 30.5105 278.265 29.6014 278.903 28.4196C279.549 27.2378 279.864 25.8325 279.849 24.2037L280.558 24.4196H272.803V22.5105H282V24.4196C282 26.4044 281.582 28.1203 280.747 29.5673C279.912 31.0143 278.765 32.1317 277.307 32.9196C275.849 33.7075 274.174 34.1014 272.283 34.1014C270.171 34.1014 268.323 33.6128 266.739 32.6355C265.155 31.6507 263.922 30.2643 263.039 28.4764C262.164 26.681 261.727 24.5711 261.727 22.1469C261.727 20.3211 261.979 18.6734 262.483 17.2037C262.988 15.734 263.701 14.4764 264.623 13.431C265.553 12.3855 266.652 11.5863 267.921 11.0332C269.19 10.4726 270.593 10.1923 272.129 10.1923C273.453 10.1923 274.663 10.3931 275.758 10.7946C276.862 11.1961 277.831 11.7491 278.666 12.4537C279.51 13.1507 280.199 13.9575 280.735 14.8741C281.279 15.7832 281.645 16.7529 281.835 17.7832H279.565Z" fill="#17191F"/>
<path fill-rule="evenodd" clip-rule="evenodd" d="M3.50919 31.8169C3.50919 30.4865 4.58773 29.4079 5.91818 29.4079H6.76629C8.09675 29.4079 9.17529 30.4865 9.17529 31.8169C9.17529 33.1474 8.09675 34.2259 6.76629 34.2259H5.91818C4.58773 34.2259 3.50919 33.1474 3.50919 31.8169Z" fill="#17191F"/>
<path fill-rule="evenodd" clip-rule="evenodd" d="M8.49357 22.181C8.49357 20.8505 7.41503 19.772 6.08457 19.772H2.409C1.07854 19.772 0 20.8505 0 22.181C0 23.5114 1.07854 24.59 2.409 24.59H6.08457C7.41503 24.59 8.49357 23.5114 8.49357 22.181Z" fill="#17191F"/>
<path fill-rule="evenodd" clip-rule="evenodd" d="M16.2719 2.909C16.2719 1.57854 17.3504 0.5 18.6809 0.5H19.4061C20.7365 0.5 21.8151 1.57854 21.8151 2.909C21.8151 4.23945 20.7365 5.31799 19.4061 5.31799H18.6809C17.3504 5.31799 16.2719 4.23945 16.2719 2.909Z" fill="#17191F"/>
<path d="M15.8422 10.136C14.5118 10.136 13.4333 11.2145 13.4333 12.545C13.4333 13.8754 14.5118 14.954 15.8422 14.954H15.9416C17.272 14.954 18.3506 13.8754 18.3506 12.545C18.3506 11.2145 17.272 10.136 15.9416 10.136H15.8422Z" fill="#17191F"/>
<path d="M12.4448 39.0439C11.1144 39.0439 10.0358 40.1225 10.0358 41.4529C10.0358 42.7834 11.1144 43.8619 12.4448 43.8619H15.4387C16.7691 43.8619 17.8477 42.7834 17.8477 41.4529C17.8477 40.1225 16.7691 39.0439 15.4387 39.0439H12.4448Z" fill="#17191F"/>
<path d="M73 22.181C73 34.155 63.2931 43.8619 51.319 43.8619H28.0685C26.7381 43.8619 25.6595 42.7834 25.6595 41.4529C25.6595 40.1225 26.7381 39.0439 28.0685 39.0439H29.5536C30.8841 39.0439 31.9626 37.9654 31.9626 36.6349C31.9626 35.3045 30.8841 34.2259 29.5536 34.2259H20.7596C19.4291 34.2259 18.3506 33.1474 18.3506 31.8169C18.3506 30.4865 19.4291 29.4079 20.7596 29.4079H22.2022C23.5326 29.4079 24.6112 28.3294 24.6112 26.9989C24.6112 25.6685 23.5326 24.59 22.2022 24.59H16.3787C15.0482 24.59 13.9697 23.5114 13.9697 22.181C13.9697 20.8505 15.0482 19.772 16.3787 19.772H27.3614C28.6919 19.772 29.7704 18.6934 29.7704 17.363C29.7704 16.0325 28.6919 14.954 27.3614 14.954H24.7605C23.43 14.954 22.3515 13.8754 22.3515 12.545C22.3515 11.2145 23.43 10.136 24.7605 10.136H32.7052C34.0357 10.136 35.1142 9.05744 35.1142 7.72698C35.1142 6.39653 34.0357 5.31799 32.7052 5.31799H32.5165C31.186 5.31799 30.1075 4.23945 30.1075 2.909C30.1075 1.57854 31.186 0.5 32.5165 0.5H51.319C63.2931 0.5 73 10.2069 73 22.181Z" fill="#17191F"/>
<circle cx="51.319" cy="22.181" r="16.2272" fill="white"/>
<path d="M48.5275 33.7306L52.3506 10.6476H53.8294L50.0062 33.7306H48.5275ZM54.2081 18.7266C54.2622 18.1315 54.1179 17.6657 53.7753 17.329C53.4326 16.9864 52.8555 16.8151 52.044 16.8151C51.5271 16.8151 51.0943 16.8752 50.7456 16.9954C50.403 17.1156 50.1355 17.2809 49.9431 17.4913C49.7568 17.7017 49.6395 17.9452 49.5915 18.2217C49.5374 18.4381 49.5404 18.6365 49.6005 18.8168C49.6666 18.9911 49.7898 19.1504 49.9702 19.2947C50.1565 19.439 50.4 19.5682 50.7005 19.6824C51.0071 19.7966 51.3708 19.8988 51.7916 19.989L53.2342 20.3136C54.2201 20.53 55.0466 20.8155 55.7139 21.1702C56.3871 21.5188 56.9161 21.9336 57.3008 22.4145C57.6855 22.8954 57.938 23.4334 58.0582 24.0285C58.1845 24.6236 58.1875 25.2728 58.0672 25.9761C57.8629 27.1904 57.391 28.2183 56.6516 29.0599C55.9122 29.9015 54.9474 30.5416 53.7572 30.9805C52.567 31.4193 51.1904 31.6387 49.6275 31.6387C48.0285 31.6387 46.67 31.4012 45.5519 30.9264C44.4399 30.4455 43.6344 29.7121 43.1354 28.7263C42.6425 27.7344 42.5223 26.4691 42.7748 24.9302H47.5356C47.4635 25.4952 47.5236 25.9701 47.716 26.3548C47.9083 26.7396 48.2179 27.0311 48.6447 27.2295C49.0715 27.4278 49.6035 27.527 50.2407 27.527C50.7817 27.527 51.2445 27.4609 51.6293 27.3287C52.014 27.1964 52.3175 27.0131 52.5399 26.7786C52.7624 26.5442 52.8976 26.2767 52.9457 25.9761C52.9938 25.6996 52.9457 25.4532 52.8014 25.2368C52.6572 25.0204 52.3957 24.825 52.017 24.6507C51.6383 24.4763 51.1183 24.3171 50.4571 24.1728L48.6898 23.776C47.1209 23.4154 45.9366 22.8203 45.1372 21.9907C44.3377 21.1612 44.0551 20.0251 44.2896 18.5824C44.4819 17.4042 44.9658 16.3763 45.7413 15.4986C46.5227 14.615 47.5146 13.9297 48.7168 13.4428C49.9251 12.9499 51.2626 12.7034 52.7293 12.7034C54.2201 12.7034 55.4674 12.9529 56.4713 13.4518C57.4812 13.9507 58.2055 14.651 58.6443 15.5527C59.0891 16.4544 59.2094 17.5124 59.005 18.7266H54.2081Z" fill="#17191F"/>
</svg>
