<?xml version="1.0" standalone="no"?>
<!DOCTYPE svg PUBLIC "-//W3C//DTD SVG 20010904//EN"
 "http://www.w3.org/TR/2001/REC-SVG-20010904/DTD/svg10.dtd">
<svg version="1.0" xmlns="http://www.w3.org/2000/svg"
 width="1168.000000pt" height="1168.000000pt" viewBox="0 0 1168.000000 1168.000000"
 preserveAspectRatio="xMidYMid meet">
<metadata>
Created by potrace 1.14, written by Peter Selinger 2001-2017
</metadata>
<g transform="translate(0.000000,1168.000000) scale(0.100000,-0.100000)"
fill="#000000" stroke="none">
<path d="M2888 9266 c-344 -99 -382 -568 -58 -720 59 -28 76 -31 192 -34 108
-4 137 -1 195 17 207 64 320 282 252 483 -38 114 -97 179 -209 232 -61 28 -73
31 -195 33 -86 2 -146 -2 -177 -11z"/>
<path d="M5089 9261 c-105 -34 -190 -109 -238 -211 -23 -48 -26 -68 -26 -155
0 -88 3 -107 27 -157 37 -80 108 -152 185 -189 54 -26 82 -32 179 -39 96 -7
126 -14 179 -39 113 -53 191 -153 215 -278 17 -85 6 -159 -36 -243 -40 -79
-98 -136 -183 -177 l-56 -28 -730 -5 -730 -5 -67 -32 c-89 -42 -151 -101 -191
-182 -30 -61 -32 -73 -32 -166 0 -89 3 -107 28 -160 37 -79 114 -156 191 -192
l61 -28 295 -6 c168 -3 309 -10 327 -17 107 -36 195 -112 242 -212 23 -48 26
-68 26 -160 0 -96 -2 -110 -29 -163 -39 -76 -111 -148 -183 -184 l-58 -28
-970 -5 -970 -5 -58 -23 c-110 -45 -187 -122 -227 -229 -32 -85 -26 -216 15
-298 37 -76 104 -143 180 -181 l60 -29 555 -6 c348 -3 566 -9 585 -16 150 -52
250 -164 277 -311 34 -185 -87 -375 -277 -434 -16 -5 -122 -13 -235 -16 -200
-7 -207 -8 -265 -37 -127 -61 -205 -178 -213 -315 -6 -100 10 -165 58 -239 44
-68 109 -121 188 -153 l57 -23 795 -5 795 -5 58 -28 c74 -37 147 -110 184
-184 25 -53 28 -68 28 -163 0 -92 -3 -112 -26 -160 -48 -100 -136 -178 -242
-212 -18 -6 -124 -13 -237 -17 -202 -6 -206 -7 -270 -37 -80 -38 -149 -105
-187 -182 -25 -51 -28 -67 -28 -162 0 -99 2 -110 32 -171 40 -81 102 -140 191
-182 l67 -32 2025 0 c2209 0 2114 -2 2420 56 1398 267 2490 1349 2764 2739 47
239 60 385 60 670 0 275 -12 420 -55 650 -203 1075 -919 2005 -1913 2480 -387
186 -785 292 -1231 330 -75 6 -726 10 -1725 9 -1514 0 -1608 -1 -1661 -18z
m3311 -861 c1238 -96 2217 -1022 2386 -2260 24 -170 24 -490 0 -660 -79 -580
-331 -1093 -736 -1500 -939 -945 -2443 -1022 -3480 -180 -108 88 -309 290
-393 397 -232 293 -420 687 -501 1053 -78 353 -78 765 0 1120 61 279 207 626
361 860 522 793 1429 1242 2363 1170z"/>
<path d="M8375 7648 c-2 -7 -13 -71 -25 -143 -11 -71 -23 -142 -26 -156 -5
-25 -9 -27 -80 -32 -376 -32 -751 -217 -952 -470 -139 -174 -212 -378 -215
-597 -2 -171 38 -287 138 -397 133 -148 324 -239 651 -313 77 -18 142 -35 146
-39 7 -6 -76 -528 -85 -537 -6 -7 -117 25 -157 46 -107 55 -159 140 -168 275
l-5 85 -378 0 -377 0 -8 -67 c-5 -38 -8 -118 -8 -179 4 -481 318 -760 927
-819 37 -4 67 -7 67 -8 0 -1 -11 -67 -25 -147 -36 -211 -46 -190 90 -190 l114
0 6 33 c3 17 16 93 28 167 l23 135 64 8 c269 32 431 73 586 146 235 112 390
260 491 467 67 138 94 245 100 400 9 229 -38 365 -176 505 -130 131 -306 216
-586 284 -82 19 -155 37 -161 39 -10 4 64 497 77 510 9 10 73 -13 121 -43 57
-36 96 -110 101 -191 l3 -55 381 -3 382 -2 5 32 c32 207 -5 401 -103 550 -134
204 -372 334 -676 370 -58 7 -105 17 -105 23 0 5 11 75 25 155 14 80 25 151
25 158 0 9 -30 12 -115 12 -84 0 -117 -3 -120 -12z m-168 -1015 c-3 -16 -20
-117 -38 -225 -24 -146 -36 -198 -46 -198 -19 0 -91 37 -131 67 -62 46 -77
115 -46 205 25 76 92 133 189 164 66 21 78 18 72 -13z m126 -1224 c104 -51
137 -94 137 -177 0 -104 -75 -194 -203 -241 -81 -30 -100 -28 -95 7 59 371 73
442 86 442 7 0 41 -14 75 -31z"/>
<path d="M2445 7727 c-118 -31 -206 -104 -258 -215 -29 -60 -32 -76 -32 -157
1 -114 26 -183 96 -260 101 -110 253 -151 405 -110 184 50 304 236 273 426
-21 131 -119 255 -237 299 -70 27 -180 34 -247 17z"/>
<path d="M317 6190 c-115 -20 -223 -104 -280 -220 -29 -58 -32 -73 -32 -155 1
-70 6 -103 24 -147 31 -81 106 -159 189 -200 l67 -33 381 -3 c368 -3 383 -2
438 19 71 26 130 71 178 134 53 70 73 134 72 230 -1 105 -29 176 -96 250 -112
123 -164 135 -583 134 -171 -1 -332 -5 -358 -9z"/>
<path d="M806 4626 c-72 -30 -119 -67 -168 -132 -53 -69 -73 -132 -72 -229 1
-105 28 -176 96 -251 84 -92 196 -134 353 -134 148 0 243 32 329 111 196 179
149 503 -92 621 -66 33 -68 33 -227 36 -151 2 -163 1 -219 -22z"/>
<path d="M1895 3101 c-99 -25 -205 -114 -253 -210 -24 -50 -27 -67 -27 -161 0
-99 2 -110 32 -171 40 -81 102 -140 191 -182 l67 -32 286 -3 c178 -2 308 1
345 7 205 38 337 220 313 433 -13 119 -100 238 -216 295 l-58 28 -325 2 c-179
1 -338 -2 -355 -6z"/>
</g>
</svg>
