<svg width="127" height="38" viewBox="0 0 127 38" fill="none" xmlns="http://www.w3.org/2000/svg">
<g clip-path="url(#clip0_15_157)">
<path fill-rule="evenodd" clip-rule="evenodd" d="M78.7882 29.7171C71.408 35.1183 60.7108 38 51.5008 38C38.5869 38 26.961 33.2575 18.1656 25.3699C17.4745 24.7496 18.0937 23.9043 18.9229 24.3874C28.4149 29.8708 40.1514 33.1697 52.2748 33.1697C60.451 33.1697 69.4454 31.4901 77.7157 28.0046C78.9651 27.4776 80.0099 28.817 78.7882 29.7171Z" fill="#FF9900"/>
<path fill-rule="evenodd" clip-rule="evenodd" d="M81.8566 26.2318C80.9168 25.0352 75.6207 25.6664 73.2436 25.9464C72.5194 26.0342 72.4088 25.4084 73.0612 24.9583C77.2792 22.0108 84.2005 22.8616 85.0077 23.8496C85.8148 24.8431 84.7976 31.7317 80.8338 35.0196C80.2257 35.5246 79.6453 35.2556 79.9162 34.586C80.8062 32.3794 82.8019 27.4339 81.8566 26.2318Z" fill="#FF9900"/>
<path fill-rule="evenodd" clip-rule="evenodd" d="M73.4096 4.14958V1.28435C73.4096 0.850728 73.7413 0.559814 74.1393 0.559814H87.0588C87.4734 0.559814 87.8051 0.856218 87.8051 1.28435V3.73791C87.7995 4.14958 87.4513 4.6875 86.8321 5.53829L80.1374 15.0287C82.6251 14.9683 85.251 15.3361 87.5065 16.5985C88.0151 16.8839 88.1533 17.3011 88.192 17.7128V20.7701C88.192 21.1873 87.7277 21.6758 87.2412 21.4233C83.2664 19.354 77.9869 19.1289 73.592 21.4453C73.1442 21.6868 72.6743 21.2037 72.6743 20.7866V17.8829C72.6743 17.4164 72.6798 16.6205 73.1497 15.9124L80.9058 4.86864H74.1559C73.7413 4.86864 73.4096 4.57772 73.4096 4.14958Z" fill="black"/>
<path fill-rule="evenodd" clip-rule="evenodd" d="M26.2811 22.0272H22.3505C21.9746 21.9997 21.6761 21.7198 21.6484 21.363V1.33384C21.6484 0.93315 21.9857 0.614788 22.4058 0.614788H26.071C26.4525 0.631244 26.7565 0.922168 26.7842 1.28444V3.90267H26.856C27.8124 1.37226 29.6091 0.192139 32.0305 0.192139C34.4905 0.192139 36.0274 1.37226 37.133 3.90267C38.0839 1.37226 40.2454 0.192139 42.5617 0.192139C44.2092 0.192139 46.0114 0.867279 47.1115 2.38223C48.3553 4.06733 48.101 6.5154 48.101 8.66158L48.0955 21.3026C48.0955 21.7033 47.7583 22.0272 47.3381 22.0272H43.4131C43.0206 21.9997 42.7055 21.6868 42.7055 21.3026V10.687C42.7055 9.8417 42.7829 7.73395 42.5949 6.93256C42.3019 5.58777 41.4229 5.20903 40.2841 5.20903C39.3333 5.20903 38.3382 5.84026 37.9346 6.85023C37.531 7.8602 37.5697 9.55079 37.5697 10.687V21.3026C37.5697 21.7033 37.2325 22.0272 36.8124 22.0272H32.8873C32.4893 21.9997 32.1797 21.6868 32.1797 21.3026L32.1742 10.687C32.1742 8.453 32.5446 5.16512 29.7528 5.16512C26.9279 5.16512 27.0385 8.37066 27.0385 10.687V21.3026C27.0385 21.7033 26.7012 22.0272 26.2811 22.0272" fill="black"/>
<path fill-rule="evenodd" clip-rule="evenodd" d="M98.9277 0.192139C104.76 0.192139 107.917 5.16512 107.917 11.4884C107.917 17.5976 104.428 22.4443 98.9277 22.4443C93.2004 22.4443 90.0825 17.4713 90.0825 11.2743C90.0825 5.03887 93.2391 0.192139 98.9277 0.192139ZM98.9609 4.2814C96.0641 4.2814 95.8816 8.20051 95.8816 10.6431C95.8816 13.0912 95.8429 18.3166 98.9277 18.3166C101.974 18.3166 102.117 14.1011 102.117 11.5323C102.117 9.8417 102.046 7.82177 101.531 6.219C101.089 4.82481 100.21 4.2814 98.9609 4.2814Z" fill="black"/>
<path fill-rule="evenodd" clip-rule="evenodd" d="M115.479 22.0272H111.565C111.173 21.9997 110.858 21.6868 110.858 21.3026L110.852 1.26797C110.885 0.900212 111.211 0.614788 111.609 0.614788H115.253C115.595 0.631244 115.877 0.861791 115.955 1.17466V4.23749H116.026C117.127 1.49851 118.669 0.192139 121.383 0.192139C123.147 0.192139 124.866 0.823368 125.972 2.55238C127 4.15516 127 6.85023 127 8.78782V21.3959C126.956 21.7472 126.63 22.0272 126.243 22.0272H122.301C121.942 21.9997 121.643 21.7362 121.604 21.3959V10.5168C121.604 8.32675 121.859 5.12121 119.144 5.12121C118.188 5.12121 117.309 5.75793 116.872 6.72398C116.319 7.94802 116.248 9.16656 116.248 10.5168V21.3026C116.242 21.7033 115.899 22.0272 115.479 22.0272" fill="black"/>
<path fill-rule="evenodd" clip-rule="evenodd" d="M63.1104 12.4599C63.1104 13.9803 63.1491 15.2483 62.3752 16.5986C61.7505 17.6964 60.7554 18.3715 59.6553 18.3715C58.1461 18.3715 57.2616 17.2298 57.2616 15.5447C57.2616 12.2184 60.2634 11.6146 63.1104 11.6146V12.4599ZM67.0742 21.9723C66.8144 22.2028 66.4384 22.2193 66.1454 22.0656C64.8408 20.9897 64.6031 20.4902 63.8899 19.4638C61.7339 21.6484 60.2026 22.3016 57.4108 22.3016C54.0994 22.3016 51.5288 20.2762 51.5288 16.2198C51.5288 13.0527 53.2536 10.8956 55.7192 9.84168C57.8531 8.90856 60.8328 8.7439 63.1104 8.48592V7.98093C63.1104 7.0533 63.1823 5.95551 62.6295 5.15412C62.1541 4.43507 61.2364 4.13867 60.4237 4.13867C58.9256 4.13867 57.5933 4.90163 57.2671 6.48245C57.2008 6.83374 56.9409 7.17954 56.5816 7.19601L52.7727 6.78983C52.452 6.71847 52.0927 6.46049 52.1867 5.97198C53.0601 1.38322 57.2395 0 60.9766 0C62.8893 0 65.3881 0.504984 66.8973 1.94309C68.8101 3.71602 68.6276 6.08175 68.6276 8.65607V14.7378C68.6276 16.5656 69.3905 17.367 70.1092 18.355C70.358 18.7063 70.4132 19.129 70.0926 19.3924C69.291 20.0566 67.8647 21.2916 67.0797 21.9832L67.0742 21.9722" fill="black"/>
<path fill-rule="evenodd" clip-rule="evenodd" d="M11.5816 12.4599C11.5816 13.9803 11.6203 15.2483 10.8464 16.5986C10.2217 17.6964 9.23214 18.3715 8.12649 18.3715C6.61729 18.3715 5.7383 17.2298 5.7383 15.5447C5.7383 12.2184 8.74013 11.6146 11.5816 11.6146V12.4599ZM15.5454 21.9723C15.2856 22.2028 14.9096 22.2193 14.6166 22.0656C13.312 20.9897 13.0798 20.4902 12.3611 19.4638C10.2051 21.6484 8.67932 22.3016 5.88203 22.3016C2.57615 22.3016 0 20.2762 0 16.2198C0 13.0527 1.73033 10.8956 4.1904 9.84168C6.32429 8.90856 9.30401 8.7439 11.5816 8.48592V7.98093C11.5816 7.0533 11.6535 5.95551 11.1062 5.15412C10.6253 4.43507 9.70757 4.13867 8.90044 4.13867C7.4023 4.13867 6.06447 4.90163 5.7383 6.48245C5.67196 6.83374 5.41213 7.17954 5.05833 7.19601L1.24385 6.78983C0.923214 6.71847 0.569406 6.46049 0.657858 5.97198C1.53685 1.38322 5.71066 0 9.44774 0C11.3605 0 13.8593 0.504984 15.3685 1.94309C17.2812 3.71602 17.0988 6.08175 17.0988 8.65607V14.7378C17.0988 16.5656 17.8617 17.367 18.5804 18.355C18.8347 18.7063 18.89 19.129 18.5693 19.3924C17.7677 20.0566 16.3414 21.2916 15.5564 21.9832L15.5454 21.9722" fill="black"/>
</g>
<defs>
<clipPath id="clip0_15_157">
<rect width="127" height="38" fill="white"/>
</clipPath>
</defs>
</svg>
